<mxfile host="app.diagrams.net" agent="Mozilla/5.0 (Macintosh; Intel Mac OS X 10.15; rv:139.0) Gecko/20100101 Firefox/139.0" version="27.1.6">
  <diagram id="C5RBs43oDa-KdzZeNtuy" name="Page-1">
    <mxGraphModel dx="990" dy="864" grid="1" gridSize="10" guides="1" tooltips="1" connect="1" arrows="1" fold="1" page="1" pageScale="1" pageWidth="827" pageHeight="1169" math="0" shadow="0">
      <root>
        <mxCell id="WIyWlLk6GJQsqaUBKTNV-0" />
        <mxCell id="WIyWlLk6GJQsqaUBKTNV-1" parent="WIyWlLk6GJQsqaUBKTNV-0" />
        <mxCell id="8rW0lbbWNLRbVm4_d3qb-1" value="real.exe" style="shape=umlFrame;whiteSpace=wrap;html=1;pointerEvents=0;recursiveResize=0;container=1;collapsible=0;width=170;" vertex="1" parent="WIyWlLk6GJQsqaUBKTNV-1">
          <mxGeometry x="40" y="40" width="290" height="200" as="geometry" />
        </mxCell>
        <mxCell id="8rW0lbbWNLRbVm4_d3qb-2" value="&lt;div&gt;Inputs: WPS outputs, namelist,&lt;/div&gt;&lt;div&gt;meteorology data&lt;/div&gt;" style="text;html=1;" vertex="1" parent="8rW0lbbWNLRbVm4_d3qb-1">
          <mxGeometry width="230" height="50" relative="1" as="geometry">
            <mxPoint x="20" y="40" as="offset" />
          </mxGeometry>
        </mxCell>
        <mxCell id="8rW0lbbWNLRbVm4_d3qb-3" value="&lt;div&gt;Outputs:&lt;/div&gt;&lt;div&gt;wrfinput_d01 / d02 / d03&lt;/div&gt;&lt;div&gt;wrflowinput_d01 / d02 / d03&lt;/div&gt;&lt;div&gt;wrfbdy_d01&lt;/div&gt;" style="line;strokeWidth=1;dashed=1;labelPosition=center;verticalLabelPosition=bottom;align=left;verticalAlign=top;spacingLeft=20;spacingTop=15;html=1;whiteSpace=wrap;" vertex="1" parent="8rW0lbbWNLRbVm4_d3qb-1">
          <mxGeometry y="90" width="290" height="10" as="geometry" />
        </mxCell>
        <mxCell id="8rW0lbbWNLRbVm4_d3qb-4" value="wrf (d01)" style="shape=umlFrame;whiteSpace=wrap;html=1;pointerEvents=0;recursiveResize=0;container=1;collapsible=0;width=170;" vertex="1" parent="WIyWlLk6GJQsqaUBKTNV-1">
          <mxGeometry x="40" y="280" width="290" height="140" as="geometry" />
        </mxCell>
        <mxCell id="8rW0lbbWNLRbVm4_d3qb-5" value="&lt;div&gt;inputs: namelist, wrfinput_d01, wrfbdy_d01&lt;/div&gt;" style="text;html=1;" vertex="1" parent="8rW0lbbWNLRbVm4_d3qb-4">
          <mxGeometry width="240" height="20" relative="1" as="geometry">
            <mxPoint x="20" y="40" as="offset" />
          </mxGeometry>
        </mxCell>
        <mxCell id="8rW0lbbWNLRbVm4_d3qb-6" value="&lt;div&gt;Outputs:&lt;/div&gt;&lt;div&gt;wrfout_d01.....&lt;/div&gt;" style="line;strokeWidth=1;dashed=1;labelPosition=center;verticalLabelPosition=bottom;align=left;verticalAlign=top;spacingLeft=20;spacingTop=15;html=1;whiteSpace=wrap;" vertex="1" parent="8rW0lbbWNLRbVm4_d3qb-4">
          <mxGeometry y="70" width="290" height="10" as="geometry" />
        </mxCell>
      </root>
    </mxGraphModel>
  </diagram>
</mxfile>
